<?xml version="1.0" encoding="UTF-8" standalone="no"?>
<!-- Created with Inkscape (http://www.inkscape.org/) -->

<svg
   width="500"
   height="500"
   viewBox="0 0 132.29166 132.29167"
   version="1.1"
   id="svg2584"
   sodipodi:docname="icon-white.svg"
   inkscape:export-filename="icon\icon-original.png"
   inkscape:export-xdpi="96"
   inkscape:export-ydpi="96"
   inkscape:version="1.2.1 (9c6d41e410, 2022-07-14)"
   xml:space="preserve"
   xmlns:inkscape="http://www.inkscape.org/namespaces/inkscape"
   xmlns:sodipodi="http://sodipodi.sourceforge.net/DTD/sodipodi-0.dtd"
   xmlns="http://www.w3.org/2000/svg"
   xmlns:svg="http://www.w3.org/2000/svg"><sodipodi:namedview
     id="namedview2586"
     pagecolor="#ffffff"
     bordercolor="#000000"
     borderopacity="0.25"
     inkscape:showpageshadow="2"
     inkscape:pageopacity="0.0"
     inkscape:pagecheckerboard="0"
     inkscape:deskcolor="#d1d1d1"
     inkscape:document-units="mm"
     showgrid="false"
     inkscape:zoom="0.73851712"
     inkscape:cx="-79.212788"
     inkscape:cy="285.70766"
     inkscape:window-width="1920"
     inkscape:window-height="1009"
     inkscape:window-x="1912"
     inkscape:window-y="-8"
     inkscape:window-maximized="1"
     inkscape:current-layer="layer1" /><defs
     id="defs2581" /><g
     inkscape:label="Layer 1"
     inkscape:groupmode="layer"
     id="layer1"><path
       id="path3424"
       style="fill:#ffffff;stroke-width:12.449"
       d="M 66.278642 1.0237101 A 65.920387 65.920387 0 0 0 0.35811768 66.944234 A 65.920387 65.920387 0 0 0 66.278642 132.86476 A 65.920387 65.920387 0 0 0 132.19917 66.944234 A 65.920387 65.920387 0 0 0 66.278642 1.0237101 z M 33.877002 32.106051 L 61.976579 32.106051 L 48.868335 54.372909 L 33.877002 32.106051 z M 69.560095 32.106051 L 97.228691 32.106051 L 84.525073 54.162069 L 69.560095 32.106051 z M 66.049715 32.203202 L 80.495862 54.311414 L 52.59834 54.311414 L 66.049715 32.203202 z M 31.809428 34.728113 L 45.718656 54.311414 L 12.226127 54.311414 L 31.809428 34.728113 z M 101.70697 34.728113 L 120.33116 54.311414 L 88.47522 54.311414 L 101.70697 34.728113 z M 51.57773 58.121 L 81.164038 58.121 L 66.806258 115.71903 L 51.57773 58.121 z M 13.237435 58.2967 L 46.677254 58.2967 L 64.193498 116.5903 L 13.237435 58.2967 z M 86.240731 58.2967 L 119.68055 58.2967 L 69.331685 116.59908 L 86.240731 58.2967 z " /></g><g
     inkscape:groupmode="layer"
     id="layer2"
     inkscape:label="Layer 2" /><style
     type="text/css"
     id="style4001">.st0{fill-rule:evenodd;clip-rule:evenodd;}</style></svg>
